<?xml version="1.0" encoding="UTF-8"?>
<svg id="Layer_1" xmlns="http://www.w3.org/2000/svg" version="1.1" viewBox="0 0 121.59 121.64">
  <!-- Generator: Adobe Illustrator 30.1.0, SVG Export Plug-In . SVG Version: 2.1.1 Build 136)  -->
  <defs>
    <style>
      .st0 {
        fill: #231f20;
      }

      .st1 {
        isolation: isolate;
      }
    </style>
  </defs>
  <path class="st0" d="M60.68,2.41C28.52,2.41,2.36,28.57,2.36,60.73s26.16,58.32,58.32,58.32,58.32-26.16,58.32-58.32S92.84,2.41,60.68,2.41ZM7.36,60.73C7.36,31.83,30.47,8.25,59.18,7.45v106.56c-28.71-.8-51.82-24.38-51.82-53.28ZM62.18,114.01V7.45c28.71.8,51.82,24.38,51.82,53.28s-23.11,52.48-51.82,53.28Z"/>
  <g class="st1">
    <path class="st0" d="M30.11,73.51v-25.56h10.73c1.15,0,2.21.24,3.19.72.97.48,1.81,1.11,2.5,1.89.7.78,1.24,1.67,1.64,2.66.4,1,.59,2.01.59,3.04s-.19,2.12-.56,3.11c-.37,1-.89,1.88-1.57,2.66s-1.48,1.4-2.43,1.87c-.95.47-2,.7-3.15.7h-6.91v8.89h-4.03ZM34.14,61.05h6.66c.58,0,1.1-.12,1.57-.36.47-.24.87-.58,1.21-1.01.34-.43.6-.94.79-1.51.19-.58.29-1.21.29-1.91s-.11-1.37-.32-1.94c-.22-.58-.52-1.07-.9-1.49-.38-.42-.82-.74-1.31-.97-.49-.23-1-.34-1.53-.34h-6.44v9.54Z"/>
  </g>
  <g class="st1">
    <path class="st0" d="M93.15,66.92c0,1.03-.21,1.96-.63,2.77-.42.82-.98,1.51-1.69,2.07-.71.56-1.54,1-2.5,1.3-.96.3-1.98.45-3.06.45h-12.2v-25.56h13.18c.89,0,1.69.19,2.41.58.72.38,1.33.88,1.84,1.49.5.61.89,1.31,1.17,2.09.28.78.41,1.57.41,2.36,0,1.25-.32,2.42-.95,3.51-.64,1.09-1.54,1.9-2.72,2.43,1.46.43,2.62,1.22,3.47,2.36.85,1.14,1.28,2.53,1.28,4.16ZM77.09,51.44v7.52h7.42c.5,0,.97-.1,1.39-.29.42-.19.79-.45,1.12-.77.32-.32.58-.71.76-1.17.18-.46.27-.96.27-1.51,0-1.1-.31-2.01-.94-2.72s-1.42-1.06-2.38-1.06h-7.63ZM89.01,66.17c0-.53-.09-1.03-.27-1.51-.18-.48-.42-.9-.72-1.26-.3-.36-.67-.65-1.1-.86-.43-.22-.9-.32-1.4-.32h-8.42v7.81h8.17c.53,0,1.02-.1,1.48-.31.46-.2.85-.48,1.19-.83.34-.35.6-.76.79-1.22.19-.47.29-.97.29-1.49Z"/>
  </g>
</svg>